# xmcd
#
# Track frame offsets:
#	150
#	12340
#	26160
#	37135
#	50045
#	62243
#	72596
#	82953
#	94872
#	104916
#	115262
#	126958
#	137856
#	148736
#	158557
#	167016
#	178404
#	186132
#	195841
#	204350
#
# Disc length: 2867 seconds
#
# Revision: 1
# Processed by: cddbd v1.5.2PL0 Copyright (c) Steve Scherf et al.
# Submitted via: audiograbber 1.83.01
#
DISCID=2f0b3114
DTITLE=Jonny Cash - Maailman tähdet
DYEAR=1900
DGENRE=
TTITLE0=I Walk The Line
TTITLE1=Don't Take Your Guns To Town
TTITLE2=Fool's Hall Of Fame
TTITLE3=Folsom Prison Blues
TTITLE4=You're The Nearest Thing To Heaven
TTITLE5=Get Rhythm
TTITLE6=The Ways Of A Woman In Love
TTITLE7=So Doggone Lonesome
TTITLE8=Ballad Of A Teenage Queen
TTITLE9=You Win Again
TTITLE10=Big River
TTITLE11=Cry! Cry! Cry!
TTITLE12=I Just Thought You'd Like To Know
TTITLE13=It's Just About Time
TTITLE14=The Wreck Of The Old 97
TTITLE15=Don't Make Me Go
TTITLE16=If The Good Lord's Willing
TTITLE17=What Do I Care
TTITLE18=Always Alone
TTITLE19=I Heard That Lonesome Whistle
EXTD=
EXTT0=
EXTT1=
EXTT2=
EXTT3=
EXTT4=
EXTT5=
EXTT6=
EXTT7=
EXTT8=
EXTT9=
EXTT10=
EXTT11=
EXTT12=
EXTT13=
EXTT14=
EXTT15=
EXTT16=
EXTT17=
EXTT18=
EXTT19=
PLAYORDER=
